<svg width="27px" height="33px" class="header__logo__signet" viewBox="0 0 27 33" version="1.1" xmlns="http://www.w3.org/2000/svg" xmlns:xlink="http://www.w3.org/1999/xlink"> <g id="Page-1" stroke="none" stroke-width="1" fill="none" fill-rule="evenodd"> <g id="desktop-navigation-variants" transform="translate(-24.000000, -16.000000)" fill="#7DD995" fill-rule="nonzero"> <g id="topBar"> <g id="navBar-2" transform="translate(0.000000, 0.384000)"> <g id="logo_full-Versie" transform="translate(24.000000, 15.000000)"> <path d="M0.8,1.7 C0.8,1.4 0.9,1.2 1,1 C1.2,0.8 1.5,0.7 1.8,0.7 L15.9,0.7 C16.9,0.7 17.8,0.8 18.8,1.1 C19.7,1.4 20.5,1.8 21.3,2.3 C22.1,2.8 22.7,3.4 23.3,4.1 C23.9,4.8 24.4,5.5 24.8,6.3 C25.2,7.1 25.5,7.9 25.8,8.8 C26,9.7 26.1,10.6 26.1,11.5 C26.1,12.8 25.9,14.2 25.4,15.4 C24.9,16.6 24.2,17.8 23.4,18.8 C23.2,19 23,19.2 22.8,19.4 L15.4,9 C15.2,8.7 14.8,8.5 14.5,8.5 C14.1,8.5 13.7,8.7 13.5,9 L4.6,21.6 C4.3,22 4.3,22.4 4.5,22.8 C4.7,23.2 5.1,23.4 5.5,23.4 L9.4,23.4 L9.4,32.5 C9.4,33.2 9.1,33.5 8.4,33.5 L1.8,33.5 C1.5,33.5 1.3,33.4 1.1,33.3 C0.9,33.1 0.8,32.8 0.8,32.5 L0.8,1.7 Z" id="Shape"></path> <path d="M14.5,14.9 C15.7,14.9 16.7,15.9 16.7,17.1 C16.7,18.3 15.7,19.3 14.5,19.3 C13.3,19.3 12.3,18.3 12.3,17.1 C12.3,17.1 12.3,17.1 12.3,17.1 C12.3,15.9 13.2,14.9 14.5,14.9 C14.5,14.9 14.5,14.9 14.5,14.9" id="Shape"></path> </g> </g> </g> </g> </g> </svg>