<svg version="1.1" class="header__logo__text" xmlns="http://www.w3.org/2000/svg" xmlns:xlink="http://www.w3.org/1999/xlink" x="0px" y="0px" viewBox="0 0 160 22" style="enable-background:new 0 0 160 22;" xml:space="preserve"> <style type="text/css"> .st0 { enable-background: new; } .st1 { fill: #61677D; } </style> <g id="Page-1"> <g id="desktop-navigation-variants" transform="translate(-63.000000, -22.000000)"> <g id="topBar"> <g id="navBar-2" transform="translate(0.000000, 0.384000)"> <g id="logo_full-Versie" transform="translate(24.000000, 15.000000)"> <g class="st0"> <path class="st1" d="M39.6,11.3h1.9v1.6c0.4-0.5,0.8-1,1.3-1.3c0.7-0.4,1.5-0.7,2.4-0.7c1.3,0,2.5,0.5,3.4,1.5 s1.4,2.5,1.4,4.4c0,2.6-0.7,4.4-2,5.5c-0.9,0.7-1.9,1.1-3,1.1c-0.9,0-1.6-0.2-2.3-0.6c-0.4-0.2-0.8-0.6-1.2-1.1v6.1h-2V11.3z M47.1,20.6c0.6-0.8,0.9-1.9,0.9-3.5c0-0.9-0.1-1.8-0.4-2.4c-0.5-1.3-1.5-2-2.8-2c-1.4,0-2.3,0.7-2.8,2.1 c-0.3,0.7-0.4,1.7-0.4,2.8c0,0.9,0.1,1.7,0.4,2.3c0.5,1.2,1.5,1.8,2.8,1.8C45.7,21.8,46.5,21.4,47.1,20.6z"></path> <path class="st1" d="M57.4,11.3h1.9v2c0.2-0.4,0.5-0.9,1.1-1.5c0.6-0.6,1.3-0.9,2.1-0.9c0,0,0.1,0,0.2,0c0.1,0,0.2,0,0.5,0 v2.1c-0.1,0-0.2,0-0.3,0c-0.1,0-0.2,0-0.3,0c-1,0-1.8,0.3-2.3,1c-0.5,0.6-0.8,1.4-0.8,2.2v6.8h-2V11.3z"></path> <path class="st1" d="M78.5,12.5c1,1,1.6,2.5,1.6,4.5c0,1.9-0.5,3.5-1.4,4.7c-0.9,1.2-2.4,1.9-4.3,1.9c-1.6,0-2.9-0.6-3.9-1.7 c-1-1.1-1.4-2.6-1.4-4.4c0-2,0.5-3.6,1.5-4.8c1-1.2,2.4-1.8,4-1.8C76.2,10.9,77.4,11.5,78.5,12.5z M77.3,20.4 c0.5-1,0.7-2.1,0.7-3.3c0-1.1-0.2-2-0.5-2.7c-0.6-1.1-1.5-1.6-2.9-1.6c-1.2,0-2.1,0.5-2.6,1.4s-0.8,2.1-0.8,3.4 c0,1.3,0.3,2.3,0.8,3.2s1.4,1.3,2.6,1.3C75.9,21.9,76.8,21.4,77.3,20.4z"></path> <path class="st1" d="M87.5,11.3h2V13c0.5-0.6,0.9-1,1.3-1.3c0.7-0.5,1.4-0.7,2.2-0.7c0.9,0,1.7,0.2,2.3,0.7 c0.3,0.3,0.6,0.7,0.9,1.2c0.4-0.6,1-1.1,1.6-1.4s1.3-0.5,2-0.5c1.6,0,2.7,0.6,3.3,1.7c0.3,0.6,0.5,1.5,0.5,2.5v7.9h-2.1v-8.2 c0-0.8-0.2-1.3-0.6-1.6c-0.4-0.3-0.9-0.4-1.4-0.4c-0.8,0-1.5,0.3-2,0.8c-0.6,0.5-0.8,1.4-0.8,2.6v6.9h-2v-7.7 c0-0.8-0.1-1.4-0.3-1.8c-0.3-0.6-0.9-0.8-1.7-0.8c-0.8,0-1.4,0.3-2.1,0.9c-0.6,0.6-0.9,1.6-0.9,3.2v6.3h-2V11.3z"></path> <path class="st1" d="M120,12.5c1,1,1.6,2.5,1.6,4.5c0,1.9-0.5,3.5-1.4,4.7c-0.9,1.2-2.4,1.9-4.3,1.9c-1.6,0-2.9-0.6-3.9-1.7 c-1-1.1-1.4-2.6-1.4-4.4c0-2,0.5-3.6,1.5-4.8c1-1.2,2.4-1.8,4-1.8C117.7,10.9,118.9,11.5,120,12.5z M118.8,20.4 c0.5-1,0.7-2.1,0.7-3.3c0-1.1-0.2-2-0.5-2.7c-0.6-1.1-1.5-1.6-2.9-1.6c-1.2,0-2.1,0.5-2.6,1.4s-0.8,2.1-0.8,3.4 c0,1.3,0.3,2.3,0.8,3.2s1.4,1.3,2.6,1.3C117.4,21.9,118.3,21.4,118.8,20.4z"></path> <path class="st1" d="M135.5,11.7c0.4,0.2,0.8,0.6,1.2,1.2v-6h1.9v16.3h-1.8v-1.7c-0.5,0.7-1,1.3-1.6,1.6 c-0.6,0.3-1.4,0.5-2.2,0.5c-1.3,0-2.5-0.6-3.4-1.7c-1-1.1-1.4-2.6-1.4-4.4c0-1.7,0.4-3.2,1.3-4.5c0.9-1.3,2.1-1.9,3.8-1.9 C134.2,11.1,134.9,11.3,135.5,11.7z M131.1,20.5c0.5,0.9,1.4,1.3,2.6,1.3c0.9,0,1.7-0.4,2.3-1.2c0.6-0.8,0.9-1.9,0.9-3.4 c0-1.5-0.3-2.6-0.9-3.3c-0.6-0.7-1.4-1.1-2.3-1.1c-1,0-1.8,0.4-2.4,1.2s-0.9,1.9-0.9,3.4C130.3,18.6,130.5,19.7,131.1,20.5z"></path> <path class="st1" d="M155.2,12.5c1,1,1.6,2.5,1.6,4.5c0,1.9-0.5,3.5-1.4,4.7c-0.9,1.2-2.4,1.9-4.3,1.9c-1.6,0-2.9-0.6-3.9-1.7 c-1-1.1-1.4-2.6-1.4-4.4c0-2,0.5-3.6,1.5-4.8c1-1.2,2.4-1.8,4-1.8C152.9,10.9,154.2,11.5,155.2,12.5z M154,20.4 c0.5-1,0.7-2.1,0.7-3.3c0-1.1-0.2-2-0.5-2.7c-0.6-1.1-1.5-1.6-2.9-1.6c-1.2,0-2.1,0.5-2.6,1.4s-0.8,2.1-0.8,3.4 c0,1.3,0.3,2.3,0.8,3.2s1.4,1.3,2.6,1.3C152.6,21.9,153.5,21.4,154,20.4z"></path> <path class="st1" d="M164.2,11.3h2V13c0.5-0.6,0.9-1,1.3-1.3c0.7-0.5,1.4-0.7,2.2-0.7c0.9,0,1.7,0.2,2.3,0.7 c0.3,0.3,0.6,0.7,0.9,1.2c0.4-0.6,1-1.1,1.6-1.4c0.6-0.3,1.3-0.5,2-0.5c1.6,0,2.7,0.6,3.3,1.7c0.3,0.6,0.5,1.5,0.5,2.5v7.9 h-2.1v-8.2c0-0.8-0.2-1.3-0.6-1.6c-0.4-0.3-0.9-0.4-1.4-0.4c-0.8,0-1.5,0.3-2,0.8c-0.6,0.5-0.8,1.4-0.8,2.6v6.9h-2v-7.7 c0-0.8-0.1-1.4-0.3-1.8c-0.3-0.6-0.9-0.8-1.7-0.8c-0.8,0-1.4,0.3-2.1,0.9c-0.6,0.6-0.9,1.6-0.9,3.2v6.3h-2V11.3z"></path> <path class="st1" d="M196.7,12.5c1,1,1.6,2.5,1.6,4.5c0,1.9-0.5,3.5-1.4,4.7s-2.4,1.9-4.3,1.9c-1.6,0-2.9-0.6-3.9-1.7 c-1-1.1-1.4-2.6-1.4-4.4c0-2,0.5-3.6,1.5-4.8c1-1.2,2.4-1.8,4-1.8C194.4,10.9,195.7,11.5,196.7,12.5z M195.5,20.4 c0.5-1,0.7-2.1,0.7-3.3c0-1.1-0.2-2-0.5-2.7c-0.6-1.1-1.5-1.6-2.9-1.6c-1.2,0-2.1,0.5-2.6,1.4s-0.8,2.1-0.8,3.4 c0,1.3,0.3,2.3,0.8,3.2s1.4,1.3,2.6,1.3C194.1,21.9,195,21.4,195.5,20.4z"></path> </g> </g> </g> </g> </g> </g> </svg>