<svg width="10px" height="13px" viewBox="0 0 10 13" version="1.1" xmlns="http://www.w3.org/2000/svg" xmlns:xlink="http://www.w3.org/1999/xlink">
    <g id="Page-1" stroke="none" stroke-width="1" fill="none" fill-rule="evenodd">
        <g id="-" transform="translate(-1478.000000, -915.000000)" fill="#62687E" fill-rule="nonzero">
            <g id="Huis-afbeelding" transform="translate(0.000000, 404.000000)">
                <g id="Tabs" transform="translate(637.000000, 500.000000)">
                    <g id="Delen" transform="translate(814.000000, 0.000000)">
                        <path d="M35.3324133,19.6395711 C34.9105704,19.6395711 34.5329746,19.8223855 34.2452845,20.1106296 L30.2835519,17.5653544 C30.3121439,17.4242929 30.3342674,17.2822073 30.3342674,17.1355368 C30.3342674,16.9888663 30.3116804,16.8472928 30.2835519,16.7057192 L34.2005529,14.1843693 C34.4993047,14.489929 34.8944097,14.6808892 35.3324133,14.6808892 C36.2558701,14.6808892 37,13.8604701 37,12.840433 C37,11.8224439 36.2554066,11 35.3324133,11 C34.4107895,11 33.6662172,11.8224439 33.6662172,12.8399442 C33.6662172,12.9886395 33.6888042,13.1281883 33.7169327,13.2697618 L29.7999107,15.7931365 C29.5006953,15.4860641 29.1060538,15.2955926 28.6675867,15.2955926 C27.7441299,15.2955926 27,16.1175478 27,17.1355368 C27,18.1535258 27.7441299,18.975993 28.6675867,18.975993 C29.1055692,18.975993 29.5006953,18.7850095 29.7994471,18.4794732 L33.7542477,21.0303573 C33.7270463,21.1602242 33.7099796,21.2956768 33.7099796,21.4306406 C33.7099796,22.4186067 34.4388759,23.2222222 35.3319287,23.2222222 C36.2258875,23.2222222 36.9552473,22.4191187 36.9552473,21.4306406 C36.9552473,20.4421626 36.2263721,19.6395711 35.3324133,19.6395711 Z" id="Shape"></path>
                    </g>
                </g>
            </g>
        </g>
    </g>
</svg>